<mxfile host="app.diagrams.net" modified="2023-07-06T10:55:29.722Z" agent="Mozilla/5.0 (Macintosh; Intel Mac OS X 10_15_7) AppleWebKit/537.36 (KHTML, like Gecko) Chrome/114.0.0.0 Safari/537.36" etag="BhhkhlZ6Qdwt4mPqHBcY" version="21.6.1" type="github">
  <diagram name="第 1 页" id="fXx2ZxRDhEUlP5MeCbJL">
    <mxGraphModel dx="3115" dy="836" grid="1" gridSize="10" guides="1" tooltips="1" connect="1" arrows="1" fold="1" page="1" pageScale="1" pageWidth="827" pageHeight="1169" math="0" shadow="0">
      <root>
        <mxCell id="0" />
        <mxCell id="1" parent="0" />
        <mxCell id="UiT3P8jMVZMeX-XvBNfT-17" value="Pool" style="swimlane;childLayout=stackLayout;resizeParent=1;resizeParentMax=0;startSize=20;html=1;" parent="1" vertex="1">
          <mxGeometry x="370.00000000000045" y="60" width="790" height="480" as="geometry" />
        </mxCell>
        <mxCell id="UiT3P8jMVZMeX-XvBNfT-18" value="&lt;div&gt;Notify4CommonController&lt;/div&gt;" style="swimlane;startSize=20;html=1;" parent="UiT3P8jMVZMeX-XvBNfT-17" vertex="1">
          <mxGeometry y="20" width="180" height="460" as="geometry" />
        </mxCell>
        <mxCell id="ggYKrRhbpDgkQSNThcsB-35" style="edgeStyle=orthogonalEdgeStyle;rounded=0;orthogonalLoop=1;jettySize=auto;html=1;exitX=0.5;exitY=1;exitDx=0;exitDy=0;entryX=0.5;entryY=0;entryDx=0;entryDy=0;" parent="UiT3P8jMVZMeX-XvBNfT-18" source="ggYKrRhbpDgkQSNThcsB-4" target="ggYKrRhbpDgkQSNThcsB-5" edge="1">
          <mxGeometry relative="1" as="geometry" />
        </mxCell>
        <mxCell id="ggYKrRhbpDgkQSNThcsB-4" value="获取参数" style="rounded=0;whiteSpace=wrap;html=1;" parent="UiT3P8jMVZMeX-XvBNfT-18" vertex="1">
          <mxGeometry x="43.999999999999545" y="40" width="80" height="40" as="geometry" />
        </mxCell>
        <mxCell id="ggYKrRhbpDgkQSNThcsB-36" style="edgeStyle=orthogonalEdgeStyle;rounded=0;orthogonalLoop=1;jettySize=auto;html=1;exitX=0.5;exitY=1;exitDx=0;exitDy=0;" parent="UiT3P8jMVZMeX-XvBNfT-18" source="ggYKrRhbpDgkQSNThcsB-5" target="ggYKrRhbpDgkQSNThcsB-26" edge="1">
          <mxGeometry relative="1" as="geometry" />
        </mxCell>
        <mxCell id="ggYKrRhbpDgkQSNThcsB-5" value="获取handler" style="rounded=0;whiteSpace=wrap;html=1;" parent="UiT3P8jMVZMeX-XvBNfT-18" vertex="1">
          <mxGeometry x="43.999999999999545" y="108" width="80" height="40" as="geometry" />
        </mxCell>
        <mxCell id="ggYKrRhbpDgkQSNThcsB-39" style="edgeStyle=orthogonalEdgeStyle;rounded=0;orthogonalLoop=1;jettySize=auto;html=1;exitX=0.5;exitY=1;exitDx=0;exitDy=0;" parent="UiT3P8jMVZMeX-XvBNfT-18" source="ggYKrRhbpDgkQSNThcsB-8" target="ggYKrRhbpDgkQSNThcsB-29" edge="1">
          <mxGeometry relative="1" as="geometry" />
        </mxCell>
        <mxCell id="ggYKrRhbpDgkQSNThcsB-8" value="根据回调类型构建通用vo" style="rounded=0;whiteSpace=wrap;html=1;" parent="UiT3P8jMVZMeX-XvBNfT-18" vertex="1">
          <mxGeometry x="43.999999999999545" y="248" width="80" height="40" as="geometry" />
        </mxCell>
        <mxCell id="ggYKrRhbpDgkQSNThcsB-38" style="edgeStyle=orthogonalEdgeStyle;rounded=0;orthogonalLoop=1;jettySize=auto;html=1;exitX=0.5;exitY=1;exitDx=0;exitDy=0;" parent="UiT3P8jMVZMeX-XvBNfT-18" source="ggYKrRhbpDgkQSNThcsB-26" target="ggYKrRhbpDgkQSNThcsB-8" edge="1">
          <mxGeometry relative="1" as="geometry" />
        </mxCell>
        <mxCell id="ggYKrRhbpDgkQSNThcsB-26" value="验签解密" style="rounded=0;whiteSpace=wrap;html=1;" parent="UiT3P8jMVZMeX-XvBNfT-18" vertex="1">
          <mxGeometry x="43.999999999999545" y="177" width="80" height="40" as="geometry" />
        </mxCell>
        <mxCell id="ggYKrRhbpDgkQSNThcsB-40" style="edgeStyle=orthogonalEdgeStyle;rounded=0;orthogonalLoop=1;jettySize=auto;html=1;exitX=0.5;exitY=1;exitDx=0;exitDy=0;" parent="UiT3P8jMVZMeX-XvBNfT-18" source="ggYKrRhbpDgkQSNThcsB-29" target="ggYKrRhbpDgkQSNThcsB-32" edge="1">
          <mxGeometry relative="1" as="geometry" />
        </mxCell>
        <mxCell id="ggYKrRhbpDgkQSNThcsB-29" value="根据vo内信息更新状态" style="rounded=0;whiteSpace=wrap;html=1;" parent="UiT3P8jMVZMeX-XvBNfT-18" vertex="1">
          <mxGeometry x="43.999999999999545" y="320" width="80" height="40" as="geometry" />
        </mxCell>
        <mxCell id="ggYKrRhbpDgkQSNThcsB-32" value="根据更新结果返回机构码" style="rounded=0;whiteSpace=wrap;html=1;" parent="UiT3P8jMVZMeX-XvBNfT-18" vertex="1">
          <mxGeometry x="43.999999999999545" y="390" width="80" height="40" as="geometry" />
        </mxCell>
        <mxCell id="ggYKrRhbpDgkQSNThcsB-42" value="" style="shape=curlyBracket;whiteSpace=wrap;html=1;rounded=1;labelPosition=left;verticalLabelPosition=middle;align=right;verticalAlign=middle;" parent="UiT3P8jMVZMeX-XvBNfT-18" vertex="1">
          <mxGeometry x="10" y="190" width="30" height="230" as="geometry" />
        </mxCell>
        <mxCell id="ggYKrRhbpDgkQSNThcsB-28" style="edgeStyle=orthogonalEdgeStyle;rounded=0;orthogonalLoop=1;jettySize=auto;html=1;exitX=1;exitY=0.5;exitDx=0;exitDy=0;" parent="UiT3P8jMVZMeX-XvBNfT-17" source="ggYKrRhbpDgkQSNThcsB-26" target="ggYKrRhbpDgkQSNThcsB-27" edge="1">
          <mxGeometry relative="1" as="geometry" />
        </mxCell>
        <mxCell id="UiT3P8jMVZMeX-XvBNfT-19" value="LoanNotifyHandlerFactory" style="swimlane;startSize=20;html=1;" parent="UiT3P8jMVZMeX-XvBNfT-17" vertex="1">
          <mxGeometry x="180" y="20" width="150" height="460" as="geometry" />
        </mxCell>
        <mxCell id="ggYKrRhbpDgkQSNThcsB-6" value="getHandler" style="rounded=0;whiteSpace=wrap;html=1;" parent="UiT3P8jMVZMeX-XvBNfT-19" vertex="1">
          <mxGeometry x="34.999999999999545" y="108" width="80" height="40" as="geometry" />
        </mxCell>
        <mxCell id="ggYKrRhbpDgkQSNThcsB-10" value="AbstractLoanNotifyHandler" style="swimlane;startSize=20;html=1;" parent="UiT3P8jMVZMeX-XvBNfT-17" vertex="1">
          <mxGeometry x="330" y="20" width="150" height="460" as="geometry" />
        </mxCell>
        <mxCell id="ggYKrRhbpDgkQSNThcsB-11" value="buildLoanStatusVo" style="rounded=0;whiteSpace=wrap;html=1;" parent="ggYKrRhbpDgkQSNThcsB-10" vertex="1">
          <mxGeometry x="17" y="248" width="110" height="40" as="geometry" />
        </mxCell>
        <mxCell id="UiT3P8jMVZMeX-XvBNfT-20" value="CommonLoanNotifyHandler" style="swimlane;startSize=20;html=1;" parent="UiT3P8jMVZMeX-XvBNfT-17" vertex="1">
          <mxGeometry x="480" y="20" width="160" height="460" as="geometry" />
        </mxCell>
        <mxCell id="ggYKrRhbpDgkQSNThcsB-27" value="verifySignAndDecrypt" style="rounded=0;whiteSpace=wrap;html=1;" parent="UiT3P8jMVZMeX-XvBNfT-20" vertex="1">
          <mxGeometry x="17.5" y="177" width="125" height="40" as="geometry" />
        </mxCell>
        <mxCell id="ggYKrRhbpDgkQSNThcsB-33" value="buildResCode" style="rounded=0;whiteSpace=wrap;html=1;" parent="UiT3P8jMVZMeX-XvBNfT-20" vertex="1">
          <mxGeometry x="13.75" y="390" width="132.5" height="40" as="geometry" />
        </mxCell>
        <mxCell id="ggYKrRhbpDgkQSNThcsB-31" style="edgeStyle=orthogonalEdgeStyle;rounded=0;orthogonalLoop=1;jettySize=auto;html=1;exitX=1;exitY=0.5;exitDx=0;exitDy=0;" parent="UiT3P8jMVZMeX-XvBNfT-17" source="ggYKrRhbpDgkQSNThcsB-29" target="ggYKrRhbpDgkQSNThcsB-30" edge="1">
          <mxGeometry relative="1" as="geometry" />
        </mxCell>
        <mxCell id="ggYKrRhbpDgkQSNThcsB-34" style="edgeStyle=orthogonalEdgeStyle;rounded=0;orthogonalLoop=1;jettySize=auto;html=1;exitX=1;exitY=0.5;exitDx=0;exitDy=0;" parent="UiT3P8jMVZMeX-XvBNfT-17" source="ggYKrRhbpDgkQSNThcsB-32" target="ggYKrRhbpDgkQSNThcsB-33" edge="1">
          <mxGeometry relative="1" as="geometry" />
        </mxCell>
        <mxCell id="ggYKrRhbpDgkQSNThcsB-1" value="ILoanRequestService" style="swimlane;startSize=20;html=1;" parent="UiT3P8jMVZMeX-XvBNfT-17" vertex="1">
          <mxGeometry x="640" y="20" width="150" height="460" as="geometry">
            <mxRectangle x="360" y="20" width="40" height="460" as="alternateBounds" />
          </mxGeometry>
        </mxCell>
        <mxCell id="ggYKrRhbpDgkQSNThcsB-30" value="syncNotifyLoanStatus" style="rounded=0;whiteSpace=wrap;html=1;" parent="ggYKrRhbpDgkQSNThcsB-1" vertex="1">
          <mxGeometry x="10" y="317.5" width="130" height="45" as="geometry" />
        </mxCell>
        <mxCell id="ggYKrRhbpDgkQSNThcsB-7" style="edgeStyle=orthogonalEdgeStyle;rounded=0;orthogonalLoop=1;jettySize=auto;html=1;exitX=1;exitY=0.5;exitDx=0;exitDy=0;" parent="UiT3P8jMVZMeX-XvBNfT-17" source="ggYKrRhbpDgkQSNThcsB-5" target="ggYKrRhbpDgkQSNThcsB-6" edge="1">
          <mxGeometry relative="1" as="geometry" />
        </mxCell>
        <mxCell id="ggYKrRhbpDgkQSNThcsB-12" style="edgeStyle=orthogonalEdgeStyle;rounded=0;orthogonalLoop=1;jettySize=auto;html=1;exitX=1;exitY=0.5;exitDx=0;exitDy=0;" parent="UiT3P8jMVZMeX-XvBNfT-17" source="ggYKrRhbpDgkQSNThcsB-8" target="ggYKrRhbpDgkQSNThcsB-11" edge="1">
          <mxGeometry relative="1" as="geometry" />
        </mxCell>
        <mxCell id="UiT3P8jMVZMeX-XvBNfT-3" value="根据url地址判断回调类型authNotify是认证通知；creditNotify是授信通知；loanNotify是放款通知；repayPlanNotify是还款通知" style="rounded=1;whiteSpace=wrap;html=1;" parent="1" vertex="1">
          <mxGeometry x="180" y="200" width="152.5" height="110" as="geometry" />
        </mxCell>
        <mxCell id="ggYKrRhbpDgkQSNThcsB-9" style="edgeStyle=orthogonalEdgeStyle;rounded=0;orthogonalLoop=1;jettySize=auto;html=1;exitX=0;exitY=0.5;exitDx=0;exitDy=0;entryX=0.5;entryY=1;entryDx=0;entryDy=0;" parent="1" source="ggYKrRhbpDgkQSNThcsB-8" target="UiT3P8jMVZMeX-XvBNfT-3" edge="1">
          <mxGeometry relative="1" as="geometry" />
        </mxCell>
        <mxCell id="ggYKrRhbpDgkQSNThcsB-43" value="异常会返回buildCatchResCode" style="text;html=1;strokeColor=none;fillColor=none;align=center;verticalAlign=middle;whiteSpace=wrap;rounded=0;" parent="1" vertex="1">
          <mxGeometry x="250" y="368" width="120" height="42" as="geometry" />
        </mxCell>
        <mxCell id="ggYKrRhbpDgkQSNThcsB-105" style="edgeStyle=orthogonalEdgeStyle;rounded=0;orthogonalLoop=1;jettySize=auto;html=1;exitX=1;exitY=0.5;exitDx=0;exitDy=0;exitPerimeter=0;entryX=0;entryY=0.5;entryDx=0;entryDy=0;" parent="1" source="ggYKrRhbpDgkQSNThcsB-44" target="ggYKrRhbpDgkQSNThcsB-45" edge="1">
          <mxGeometry relative="1" as="geometry" />
        </mxCell>
        <mxCell id="ggYKrRhbpDgkQSNThcsB-44" value="开始" style="strokeWidth=2;html=1;shape=mxgraph.flowchart.terminator;whiteSpace=wrap;" parent="1" vertex="1">
          <mxGeometry x="-850" y="185" width="90" height="40" as="geometry" />
        </mxCell>
        <mxCell id="ggYKrRhbpDgkQSNThcsB-102" style="edgeStyle=orthogonalEdgeStyle;rounded=0;orthogonalLoop=1;jettySize=auto;html=1;exitX=0.5;exitY=1;exitDx=0;exitDy=0;" parent="1" source="ggYKrRhbpDgkQSNThcsB-45" target="ggYKrRhbpDgkQSNThcsB-48" edge="1">
          <mxGeometry relative="1" as="geometry" />
        </mxCell>
        <mxCell id="ggYKrRhbpDgkQSNThcsB-109" value="是" style="edgeLabel;html=1;align=center;verticalAlign=middle;resizable=0;points=[];" parent="ggYKrRhbpDgkQSNThcsB-102" vertex="1" connectable="0">
          <mxGeometry x="0.32" relative="1" as="geometry">
            <mxPoint as="offset" />
          </mxGeometry>
        </mxCell>
        <mxCell id="ggYKrRhbpDgkQSNThcsB-103" style="edgeStyle=orthogonalEdgeStyle;rounded=0;orthogonalLoop=1;jettySize=auto;html=1;exitX=1;exitY=0.5;exitDx=0;exitDy=0;entryX=0.1;entryY=0.5;entryDx=0;entryDy=0;entryPerimeter=0;" parent="1" source="ggYKrRhbpDgkQSNThcsB-45" target="ggYKrRhbpDgkQSNThcsB-59" edge="1">
          <mxGeometry relative="1" as="geometry" />
        </mxCell>
        <mxCell id="ggYKrRhbpDgkQSNThcsB-104" value="否" style="edgeLabel;html=1;align=center;verticalAlign=middle;resizable=0;points=[];" parent="ggYKrRhbpDgkQSNThcsB-103" vertex="1" connectable="0">
          <mxGeometry x="-0.1538" y="-2" relative="1" as="geometry">
            <mxPoint as="offset" />
          </mxGeometry>
        </mxCell>
        <mxCell id="ggYKrRhbpDgkQSNThcsB-45" value="syncLoanStatusVo不为空" style="rhombus;whiteSpace=wrap;html=1;" parent="1" vertex="1">
          <mxGeometry x="-720" y="165" width="125" height="80" as="geometry" />
        </mxCell>
        <mxCell id="ggYKrRhbpDgkQSNThcsB-54" value="是" style="edgeStyle=orthogonalEdgeStyle;rounded=0;orthogonalLoop=1;jettySize=auto;html=1;exitX=0;exitY=0.5;exitDx=0;exitDy=0;" parent="1" source="ggYKrRhbpDgkQSNThcsB-48" target="ggYKrRhbpDgkQSNThcsB-51" edge="1">
          <mxGeometry relative="1" as="geometry" />
        </mxCell>
        <mxCell id="ggYKrRhbpDgkQSNThcsB-111" style="edgeStyle=orthogonalEdgeStyle;rounded=0;orthogonalLoop=1;jettySize=auto;html=1;exitX=1;exitY=0.5;exitDx=0;exitDy=0;entryX=0.5;entryY=0;entryDx=0;entryDy=0;" parent="1" source="ggYKrRhbpDgkQSNThcsB-48" target="ggYKrRhbpDgkQSNThcsB-52" edge="1">
          <mxGeometry relative="1" as="geometry" />
        </mxCell>
        <mxCell id="ggYKrRhbpDgkQSNThcsB-112" value="否" style="edgeLabel;html=1;align=center;verticalAlign=middle;resizable=0;points=[];" parent="ggYKrRhbpDgkQSNThcsB-111" vertex="1" connectable="0">
          <mxGeometry x="0.0588" y="-3" relative="1" as="geometry">
            <mxPoint as="offset" />
          </mxGeometry>
        </mxCell>
        <mxCell id="ggYKrRhbpDgkQSNThcsB-48" value="订单状态为放款后" style="rhombus;whiteSpace=wrap;html=1;" parent="1" vertex="1">
          <mxGeometry x="-720" y="275" width="125" height="80" as="geometry" />
        </mxCell>
        <mxCell id="ggYKrRhbpDgkQSNThcsB-51" value="syncMultiLoanStatus" style="rounded=0;whiteSpace=wrap;html=1;" parent="1" vertex="1">
          <mxGeometry x="-800" y="375" width="120" height="60" as="geometry" />
        </mxCell>
        <mxCell id="ggYKrRhbpDgkQSNThcsB-52" value="syncLoanStatus" style="rounded=0;whiteSpace=wrap;html=1;" parent="1" vertex="1">
          <mxGeometry x="-630" y="375" width="120" height="60" as="geometry" />
        </mxCell>
        <mxCell id="ggYKrRhbpDgkQSNThcsB-68" style="edgeStyle=orthogonalEdgeStyle;rounded=0;orthogonalLoop=1;jettySize=auto;html=1;exitX=0.5;exitY=1;exitDx=0;exitDy=0;" parent="1" source="ggYKrRhbpDgkQSNThcsB-59" target="ggYKrRhbpDgkQSNThcsB-64" edge="1">
          <mxGeometry relative="1" as="geometry" />
        </mxCell>
        <mxCell id="ggYKrRhbpDgkQSNThcsB-69" value="是" style="edgeLabel;html=1;align=center;verticalAlign=middle;resizable=0;points=[];" parent="ggYKrRhbpDgkQSNThcsB-68" vertex="1" connectable="0">
          <mxGeometry x="-0.45" y="2" relative="1" as="geometry">
            <mxPoint x="-2" y="2" as="offset" />
          </mxGeometry>
        </mxCell>
        <mxCell id="ggYKrRhbpDgkQSNThcsB-94" value="否" style="edgeStyle=orthogonalEdgeStyle;rounded=0;orthogonalLoop=1;jettySize=auto;html=1;exitX=1;exitY=0.5;exitDx=0;exitDy=0;" parent="1" source="ggYKrRhbpDgkQSNThcsB-59" target="ggYKrRhbpDgkQSNThcsB-72" edge="1">
          <mxGeometry relative="1" as="geometry" />
        </mxCell>
        <mxCell id="ggYKrRhbpDgkQSNThcsB-59" value="特殊状态处理列表不为空" style="rhombus;whiteSpace=wrap;html=1;" parent="1" vertex="1">
          <mxGeometry x="-552.5" y="165" width="125" height="80" as="geometry" />
        </mxCell>
        <mxCell id="ggYKrRhbpDgkQSNThcsB-63" value="handler中需要特殊的状态列表" style="text;html=1;strokeColor=none;fillColor=none;align=center;verticalAlign=middle;whiteSpace=wrap;rounded=0;" parent="1" vertex="1">
          <mxGeometry x="-525" y="105" width="70" height="45" as="geometry" />
        </mxCell>
        <mxCell id="ggYKrRhbpDgkQSNThcsB-64" value="syncLoanStatus" style="rounded=0;whiteSpace=wrap;html=1;" parent="1" vertex="1">
          <mxGeometry x="-550" y="285" width="120" height="60" as="geometry" />
        </mxCell>
        <mxCell id="ggYKrRhbpDgkQSNThcsB-75" style="edgeStyle=orthogonalEdgeStyle;rounded=0;orthogonalLoop=1;jettySize=auto;html=1;exitX=0.5;exitY=1;exitDx=0;exitDy=0;" parent="1" source="ggYKrRhbpDgkQSNThcsB-72" target="ggYKrRhbpDgkQSNThcsB-74" edge="1">
          <mxGeometry relative="1" as="geometry" />
        </mxCell>
        <mxCell id="ggYKrRhbpDgkQSNThcsB-89" value="是" style="edgeLabel;html=1;align=center;verticalAlign=middle;resizable=0;points=[];" parent="ggYKrRhbpDgkQSNThcsB-75" vertex="1" connectable="0">
          <mxGeometry x="-0.35" y="-4" relative="1" as="geometry">
            <mxPoint x="4" as="offset" />
          </mxGeometry>
        </mxCell>
        <mxCell id="ggYKrRhbpDgkQSNThcsB-95" style="edgeStyle=orthogonalEdgeStyle;rounded=0;orthogonalLoop=1;jettySize=auto;html=1;exitX=1;exitY=0.5;exitDx=0;exitDy=0;entryX=0.06;entryY=0.475;entryDx=0;entryDy=0;entryPerimeter=0;" parent="1" source="ggYKrRhbpDgkQSNThcsB-72" target="ggYKrRhbpDgkQSNThcsB-76" edge="1">
          <mxGeometry relative="1" as="geometry" />
        </mxCell>
        <mxCell id="ggYKrRhbpDgkQSNThcsB-96" value="否" style="edgeLabel;html=1;align=center;verticalAlign=middle;resizable=0;points=[];" parent="ggYKrRhbpDgkQSNThcsB-95" vertex="1" connectable="0">
          <mxGeometry x="-0.2121" y="2" relative="1" as="geometry">
            <mxPoint as="offset" />
          </mxGeometry>
        </mxCell>
        <mxCell id="ggYKrRhbpDgkQSNThcsB-72" value="还款列表不为空" style="rhombus;whiteSpace=wrap;html=1;" parent="1" vertex="1">
          <mxGeometry x="-387.5" y="165" width="125" height="80" as="geometry" />
        </mxCell>
        <mxCell id="ggYKrRhbpDgkQSNThcsB-74" value="保存或更新还款计划" style="rounded=0;whiteSpace=wrap;html=1;" parent="1" vertex="1">
          <mxGeometry x="-385" y="285" width="120" height="60" as="geometry" />
        </mxCell>
        <mxCell id="ggYKrRhbpDgkQSNThcsB-106" style="edgeStyle=orthogonalEdgeStyle;rounded=0;orthogonalLoop=1;jettySize=auto;html=1;exitX=1;exitY=0.5;exitDx=0;exitDy=0;" parent="1" source="ggYKrRhbpDgkQSNThcsB-76" target="ggYKrRhbpDgkQSNThcsB-81" edge="1">
          <mxGeometry relative="1" as="geometry" />
        </mxCell>
        <mxCell id="ggYKrRhbpDgkQSNThcsB-107" style="edgeStyle=orthogonalEdgeStyle;rounded=0;orthogonalLoop=1;jettySize=auto;html=1;exitX=0.5;exitY=1;exitDx=0;exitDy=0;" parent="1" source="ggYKrRhbpDgkQSNThcsB-76" target="ggYKrRhbpDgkQSNThcsB-79" edge="1">
          <mxGeometry relative="1" as="geometry" />
        </mxCell>
        <mxCell id="ggYKrRhbpDgkQSNThcsB-108" value="是" style="edgeLabel;html=1;align=center;verticalAlign=middle;resizable=0;points=[];" parent="ggYKrRhbpDgkQSNThcsB-107" vertex="1" connectable="0">
          <mxGeometry x="-0.3" y="-1" relative="1" as="geometry">
            <mxPoint as="offset" />
          </mxGeometry>
        </mxCell>
        <mxCell id="ggYKrRhbpDgkQSNThcsB-76" value="同步风控还款计划为true" style="rhombus;whiteSpace=wrap;html=1;" parent="1" vertex="1">
          <mxGeometry x="-220" y="165" width="125" height="80" as="geometry" />
        </mxCell>
        <mxCell id="ggYKrRhbpDgkQSNThcsB-79" value="保存或更新风控还款计划" style="rounded=0;whiteSpace=wrap;html=1;" parent="1" vertex="1">
          <mxGeometry x="-217.5" y="285" width="120" height="60" as="geometry" />
        </mxCell>
        <mxCell id="ggYKrRhbpDgkQSNThcsB-81" value="结束" style="strokeWidth=2;html=1;shape=mxgraph.flowchart.terminator;whiteSpace=wrap;" parent="1" vertex="1">
          <mxGeometry x="-50" y="185" width="90" height="40" as="geometry" />
        </mxCell>
        <mxCell id="ggYKrRhbpDgkQSNThcsB-113" value="更新借款信息-&amp;gt;推断订单状态-&amp;gt;更新订单-&amp;gt;更新意向" style="text;html=1;strokeColor=none;fillColor=none;align=center;verticalAlign=middle;whiteSpace=wrap;rounded=0;" parent="1" vertex="1">
          <mxGeometry x="-800" y="445" width="120" height="50" as="geometry" />
        </mxCell>
        <mxCell id="ggYKrRhbpDgkQSNThcsB-114" value="更新订单信息-&amp;gt;更新意向信息" style="text;html=1;strokeColor=none;fillColor=none;align=center;verticalAlign=middle;whiteSpace=wrap;rounded=0;" parent="1" vertex="1">
          <mxGeometry x="-630" y="445" width="120" height="50" as="geometry" />
        </mxCell>
      </root>
    </mxGraphModel>
  </diagram>
</mxfile>
